<svg width="24" height="24" viewBox="0 0 24 24" fill="none" xmlns="http://www.w3.org/2000/svg">
<path d="M11.6777 4.04008C11.8917 4.01228 12.1083 4.01228 12.3223 4.04008L13.3223 4.16997C14.5679 4.3319 15.5 5.39334 15.5 6.64946V8.15825C15.5 8.79111 15.1422 9.36937 14.5762 9.65239C13.9165 9.98224 13.5 10.657 13.5 11.3946V16.7862C13.5 17.1742 13.4099 17.5573 13.2363 17.9043L12.5527 19.2706C12.325 19.7261 11.675 19.7261 11.4473 19.2706L10.6582 17.6924C10.5543 17.4844 10.5001 17.2551 10.5 17.0225V11.6182C10.5 10.7436 10.0059 9.94391 9.22363 9.55278C8.78016 9.33104 8.5 8.8777 8.5 8.38188V6.64946C8.5 5.39334 9.43209 4.3319 10.6777 4.16997L11.6777 4.04008Z" stroke="black"/>
<circle cx="12" cy="7" r="1" fill="black"/>
<line x1="11" y1="15.5" x2="12" y2="15.5" stroke="black"/>
<line x1="11" y1="13.5" x2="12" y2="13.5" stroke="black"/>
</svg>
