<svg xmlns="http://www.w3.org/2000/svg" viewBox="0 0 640 96" fill="none" aria-hidden="true">
  <path
    d="M-20 52C48 34 112 68 188 50C264 32 332 58 408 46C484 34 548 60 660 44"
    stroke="currentColor"
    stroke-width="1.1"
    stroke-linecap="round"
    opacity="0.55"
  />
  <path
    d="M-20 62C72 44 148 72 232 54C316 36 392 64 476 52C548 42 612 58 660 48"
    stroke="currentColor"
    stroke-width="0.9"
    stroke-linecap="round"
    opacity="0.4"
  />
  <path
    d="M-20 42C64 28 136 54 220 38C304 22 380 50 464 36C536 24 600 46 660 34"
    stroke="currentColor"
    stroke-width="0.75"
    stroke-linecap="round"
    opacity="0.32"
  />
</svg>
